<?xml version="1.0" encoding="utf-8"?>
<!-- Generator: Adobe Illustrator 21.0.0, SVG Export Plug-In . SVG Version: 6.00 Build 0)  -->
<svg version="1.1" xmlns="http://www.w3.org/2000/svg" xmlns:xlink="http://www.w3.org/1999/xlink" x="0px" y="0px"
	 viewBox="0 0 1042.5 200" style="enable-background:new 0 0 1042.5 200;" xml:space="preserve">
<style type="text/css">
	.st0{fill:none;}
	.st1{enable-background:new    ;}
	.st2{fill:#424242;}
	.st3{fill:#2A729C;}
</style>
<g id="Слой_1">
	<rect id="svgEditorBackground" x="309.5" y="6" class="st0" width="1620" height="840"/>
	<g class="st1">
		<path class="st2" d="M352.3,30.8h44.3V174h-44.3V30.8z"/>
	</g>
	<g class="st1">
		<path class="st2" d="M418.3,30.8h134.5v35.4h-45.1V174h-44.2V66.2h-45.1V30.8z"/>
	</g>
	<g class="st1">
		<path class="st2" d="M565.1,126.6l42.1-2.6c0.9,6.8,2.8,12,5.6,15.6c4.6,5.8,11.1,8.7,19.5,8.7c6.3,0,11.2-1.5,14.6-4.4
			c3.4-3,5.1-6.4,5.1-10.3c0-3.7-1.6-7-4.9-10c-3.3-2.9-10.8-5.7-22.7-8.3c-19.4-4.4-33.2-10.2-41.5-17.4
			c-8.3-7.2-12.5-16.4-12.5-27.6c0-7.4,2.1-14.3,6.4-20.8c4.3-6.5,10.7-11.7,19.2-15.4c8.6-3.7,20.3-5.6,35.2-5.6
			c18.3,0,32.2,3.4,41.8,10.2c9.6,6.8,15.3,17.6,17.1,32.5l-41.7,2.4c-1.1-6.4-3.4-11.1-7-14.1c-3.5-2.9-8.4-4.4-14.7-4.4
			c-5.1,0-9,1.1-11.6,3.3c-2.6,2.2-3.9,4.8-3.9,8c0,2.3,1.1,4.3,3.2,6.2c2.1,1.9,7,3.6,14.8,5.3c19.3,4.2,33.2,8.4,41.6,12.6
			c8.4,4.3,14.5,9.6,18.3,15.9c3.8,6.3,5.7,13.4,5.7,21.2c0,9.2-2.5,17.6-7.6,25.4c-5.1,7.7-12.2,13.6-21.3,17.6
			c-9.1,4-20.6,6-34.5,6c-24.3,0-41.2-4.7-50.6-14.1S566.3,141.1,565.1,126.6z"/>
	</g>
	<rect id="e4_rectangle" x="352.3" y="28.4" class="st3" width="44.4" height="38.3"/>
	<polyline id="e6_polygon" class="st3" points="570.7,28.4 570.7,66.5 631.3,28.4 570.7,28.4 	"/>
	<rect x="418.3" y="28.4" class="st3" width="134.5" height="38.3"/>
</g>
<g id="Слой_2">
</g>
</svg>
