<?xml version="1.0" encoding="UTF-8" standalone="no"?>
<svg
   xmlns:dc="http://purl.org/dc/elements/1.1/"
   xmlns:cc="http://creativecommons.org/ns#"
   xmlns:rdf="http://www.w3.org/1999/02/22-rdf-syntax-ns#"
   xmlns:svg="http://www.w3.org/2000/svg"
   xmlns="http://www.w3.org/2000/svg"
   viewBox="0 0 305.56 234.44"
   height="234.44"
   width="305.56"
   xml:space="preserve"
   id="svg2"
   version="1.1"><metadata
     id="metadata8"><rdf:RDF><cc:Work
         rdf:about=""><dc:format>image/svg+xml</dc:format><dc:type
           rdf:resource="http://purl.org/dc/dcmitype/StillImage" /></cc:Work></rdf:RDF></metadata><defs
     id="defs6"><clipPath
       id="clipPath20"
       clipPathUnits="userSpaceOnUse"><path
         id="path18"
         d="M 0,0 H 2291.69 V 1758 H 0 Z" /></clipPath><clipPath
       id="clipPath32"
       clipPathUnits="userSpaceOnUse"><path
         id="path30"
         d="M 0,0 V 1758 H 2292 V 0 Z" /></clipPath><clipPath
       id="clipPath38"
       clipPathUnits="userSpaceOnUse"><path
         id="path36"
         d="m 177.523,1019.64 h 73.739 c 18.101,50.68 35.086,80.39 113.058,119.6 h -0.144 c 104.355,54.99 175.547,164.49 175.547,290.68 0,181.34 -146.946,328.35 -328.196,328.35 -46.101,0 -89.929,-9.63 -129.7457,-26.8 v 0.09 c -0.4297,-0.19 -0.836,-0.41 -1.2579,-0.61 -0.4804,-0.21 -0.9882,-0.39 -1.4726,-0.61 v -0.11 C 50.2383,1716.74 23.6602,1699.29 0,1678.58 l 7.17578,-7.71 c 23.76562,8.32 48.74222,14.1 74.60552,16.87 v 0.03 c 215.4457,24.69 272.4527,-174.54 262.1987,-199.21 -6.523,-19.59 -7.746,-26.05 -1.656,-44.87 15.41,-45.11 74.754,-63.38 32.68,-87.76 -6.723,-1.61 -11.238,-2.45 -15.106,-5.7 -7.546,-8.17 -0.097,-14.54 4.805,-31.67 3.125,-9.34 -5.137,-16.68 -9.445,-16.44 3.023,-2.21 8.281,-7.28 1.699,-14.52 -8.812,-12.18 -9.832,-12.88 -9.914,-24.29 1.512,-8.04 13.586,-23.48 9.914,-32.83 -4.316,-23.19 -34.262,-32.66 -47.309,-37.55 -8.007,-3 -56.671,-8.68 -75.785,-12.34 -43.195,-25.44 -59.55,-119.98 -56.34,-160.95" /></clipPath><clipPath
       id="clipPath44"
       clipPathUnits="userSpaceOnUse"><path
         id="path42"
         d="M -532.633,-5959.96 H 5533.51 V 2572.32 H -532.633 Z" /></clipPath><clipPath
       id="clipPath50"
       clipPathUnits="userSpaceOnUse"><path
         id="path48"
         d="M -532.633,-5959.96 H 5533.51 V 2572.32 H -532.633 Z" /></clipPath><clipPath
       id="clipPath56"
       clipPathUnits="userSpaceOnUse"><path
         id="path54"
         d="M -532.633,2572.32 V -5959.96 H 5533.51 v 8532.28 z" /></clipPath><linearGradient
       id="linearGradient62"
       spreadMethod="pad"
       gradientTransform="matrix(0,-936.346,539.745,0,-0.0158691,1758.27)"
       gradientUnits="userSpaceOnUse"
       y2="0"
       x2="0.92000002"
       y1="0"
       x1="0.079999998"><stop
         id="stop58"
         offset="0"
         style="stop-opacity:1;stop-color:#ef2e31" /><stop
         id="stop60"
         offset="1"
         style="stop-opacity:1;stop-color:#c5122f" /></linearGradient><clipPath
       id="clipPath72"
       clipPathUnits="userSpaceOnUse"><path
         id="path70"
         d="m 314.629,846.094 v 0.746 c -0.199,53.93 -43.969,97.594 -97.91,97.594 -54.082,0 -97.93,-43.864 -97.93,-97.965 0,-54.11 43.848,-97.981 97.93,-97.981 53.941,0 97.711,43.664 97.91,97.606" /></clipPath><clipPath
       id="clipPath78"
       clipPathUnits="userSpaceOnUse"><path
         id="path76"
         d="M -532.633,-5959.96 H 5533.51 V 2572.32 H -532.633 Z" /></clipPath><clipPath
       id="clipPath84"
       clipPathUnits="userSpaceOnUse"><path
         id="path82"
         d="M -532.633,-5959.96 H 5533.51 V 2572.32 H -532.633 Z" /></clipPath><clipPath
       id="clipPath90"
       clipPathUnits="userSpaceOnUse"><path
         id="path88"
         d="M -532.633,2572.32 V -5959.96 H 5533.51 v 8532.28 z" /></clipPath><linearGradient
       id="linearGradient96"
       spreadMethod="pad"
       gradientTransform="matrix(0,-1156.38,195.851,0,118.787,1881.72)"
       gradientUnits="userSpaceOnUse"
       y2="0"
       x2="1"
       y1="0"
       x1="0"><stop
         id="stop92"
         offset="0"
         style="stop-opacity:1;stop-color:#ef2e31" /><stop
         id="stop94"
         offset="1"
         style="stop-opacity:1;stop-color:#c5122f" /></linearGradient><clipPath
       id="clipPath106"
       clipPathUnits="userSpaceOnUse"><path
         id="path104"
         d="M 0,0 V 1758 H 2292 V 0 Z" /></clipPath></defs><g
     transform="matrix(1.3333333,0,0,-1.3333333,0,234.44)"
     id="g10"><g
       transform="scale(0.1)"
       id="g12"><g
         id="g14"><g
           clip-path="url(#clipPath20)"
           id="g16"><path
             id="path22"
             style="fill:#c4122e;fill-opacity:1;fill-rule:nonzero;stroke:none"
             d="m 598.281,948.309 c 9.141,0 17.578,-1.297 25.36,-3.887 7.761,-2.602 14.48,-6.285 20.168,-11.094 5.671,-4.789 10.043,-10.527 13.129,-17.168 3.082,-6.66 4.625,-14.172 4.625,-22.566 0,-7.375 -1.293,-14.094 -3.903,-20.145 -2.601,-6.019 -6.64,-10.898 -12.109,-14.59 9.398,-4.921 16.758,-11.589 22.082,-19.949 5.305,-8.398 7.969,-18.847 7.969,-31.422 0,-8.867 -1.661,-17.121 -4.993,-24.769 -3.328,-7.637 -8.007,-14.348 -14.07,-20.129 -6.051,-5.789 -13.191,-10.34 -21.473,-13.68 -8.234,-3.32 -17.183,-4.98 -26.824,-4.98 H 466.527 V 948.309 Z M 512.699,869.59 h 86.813 c 4.926,0 8.922,1.887 12.008,5.711 3.078,3.84 4.621,8.058 4.621,12.758 0,4.437 -1.418,8.691 -4.262,12.742 -2.832,4.082 -8.18,6.121 -16.07,6.121 h -83.11 z m 0,-84.277 h 93.84 c 7.383,0 13.164,2.07 17.363,6.144 4.168,4.121 6.27,9.391 6.27,15.832 0,6.723 -2.102,12.07 -6.27,16.039 -4.199,3.969 -9.609,5.961 -16.25,5.961 h -94.953 v -43.976" /><path
             id="path24"
             style="fill:#c4122e;fill-opacity:1;fill-rule:nonzero;stroke:none"
             d="m 2286.52,948.309 v -41.387 h -139.27 v -38.453 h 125.26 V 827.09 h -125.26 v -40.66 h 144.44 v -42.5 h -190.61 v 204.379 h 185.44" /></g></g><g
         id="g26"><g
           clip-path="url(#clipPath32)"
           id="g28"><g
             clip-path="url(#clipPath38)"
             id="g34"><g
               clip-path="url(#clipPath44)"
               id="g40"><g
                 clip-path="url(#clipPath50)"
                 id="g46"><g
                   clip-path="url(#clipPath56)"
                   id="g52"><path
                     id="path64"
                     style="fill:url(#linearGradient62);fill-opacity:1;fill-rule:nonzero;stroke:none"
                     d="m 177,1019 v 31 h 1 v 10 h 1 v 7 h 1 v 7 h 1 v 5 h 1 v 5 h 1 v 5 h 1 v 5 h 1 v 4 h 1 v 3 h 1 v 4 h 1 v 4 h 1 v 3 h 1 v 3 h 1 v 3 h 1 v 3 h 1 v 3 h 1 v 3 h 1 v 2 h 1 v 3 h 1 v 2 h 1 v 2 h 1 v 2 h 1 v 3 h 1 v 2 h 1 v 2 h 1 v 1 h 1 v 2 h 1 v 2 h 1 v 2 h 1 v 1 h 1 v 2 h 1 v 2 h 1 v 1 h 1 v 2 h 1 v 1 h 1 v 1 h 1 v 2 h 1 v 1 h 1 v 1 h 1 v 1 h 1 v 2 h 1 v 1 h 1 v 1 h 1 v 1 h 1 v 1 h 1 v 1 h 2 v 1 h 1 v 1 h 1 v 1 h 1 v 1 h 2 v 1 h 1 v 1 h 2 v 1 h 3 v 1 h 6 v 1 h 6 v 1 h 7 v 1 h 7 v 1 h 6 v 1 h 7 v 1 h 7 v 1 h 7 v 1 h 6 v 1 h 6 v 1 h 5 v 1 h 3 v 1 h 3 v 1 h 3 v 1 h 2 v 1 h 3 v 1 h 2 v 1 h 3 v 1 h 2 v 1 h 2 v 1 h 2 v 1 h 2 v 1 h 2 v 1 h 1 v 1 h 2 v 1 h 1 v 1 h 2 v 1 h 1 v 1 h 1 v 1 h 1 v 1 h 1 v 1 h 1 v 1 h 2 v 1 h 1 v 2 h 1 v 1 h 1 v 2 h 1 v 1 h 1 v 2 h 1 v 2 h 1 v 3 h 1 v 3 h 1 v 7 h -1 v 4 h -1 v 2 h -1 v 3 h -1 v 2 h -1 v 2 h -1 v 2 h -1 v 2 h -1 v 2 h -1 v 3 h -1 v 13 h 1 v 3 h 1 v 2 h 1 v 2 h 1 v 1 h 1 v 2 h 1 v 1 h 1 v 1 h 1 v 2 h 1 v 1 h 1 v 2 h 1 v 1 h 1 v 3 h 1 v 1 h -1 v 3 h -1 v 1 h -1 v 1 h -1 v 1 h -1 v 2 h 3 v 1 h 1 v 1 h 1 v 1 h 1 v 1 h 1 v 1 h 1 v 2 h 1 v 2 h 1 v 2 h -1 v 6 h -1 v 3 h -1 v 3 h -1 v 3 h -1 v 2 h -1 v 3 h -1 v 2 h -1 v 4 h -1 v 5 h 1 v 3 h 1 v 1 h 1 v 2 h 2 v 1 h 1 v 1 h 2 v 1 h 3 v 1 h 4 v 1 h 4 v 1 h 1 v 1 h 2 v 1 h 1 v 1 h 2 v 1 h 1 v 1 h 1 v 1 h 1 v 1 h 1 v 1 h 1 v 1 h 1 v 2 h 1 v 2 h 1 v 8 h -1 v 2 h -1 v 2 h -1 v 2 h -1 v 1 h -1 v 2 h -1 v 1 h -1 v 1 h -1 v 2 h -1 v 1 h -1 v 1 h -1 v 1 h -1 v 1 h -1 v 1 h -1 v 1 h -1 v 1 h -1 v 1 h -1 v 1 h -1 v 2 h -1 v 1 h -1 v 1 h -1 v 1 h -1 v 1 h -1 v 1 h -1 v 1 h -1 v 1 h -1 v 1 h -1 v 1 h -1 v 2 h -1 v 1 h -1 v 1 h -1 v 1 h -1 v 1 h -1 v 2 h -1 v 1 h -1 v 1 h -1 v 2 h -1 v 1 h -1 v 2 h -1 v 1 h -1 v 2 h -1 v 2 h -1 v 2 h -1 v 1 h -1 v 3 h -1 v 2 h -1 v 3 h -1 v 2 h -1 v 4 h -1 v 4 h -1 v 5 h -1 v 13 h 1 v 6 h 1 v 3 h 1 v 4 h 1 v 3 h 1 v 3 h 1 v 6 h 1 v 4 h -1 v 9 h -1 v 5 h -1 v 5 h -1 v 4 h -1 v 3 h -1 v 4 h -1 v 3 h -1 v 3 h -1 v 3 h -1 v 2 h -1 v 3 h -1 v 2 h -1 v 3 h -1 v 2 h -1 v 3 h -1 v 2 h -1 v 2 h -1 v 2 h -1 v 2 h -1 v 2 h -1 v 2 h -1 v 2 h -1 v 2 h -1 v 2 h -1 v 2 h -1 v 1 h -1 v 2 h -1 v 2 h -1 v 2 h -1 v 1 h -1 v 2 h -1 v 1 h -1 v 2 h -1 v 2 h -1 v 1 h -1 v 1 h -1 v 2 h -1 v 1 h -1 v 2 h -1 v 1 h -1 v 2 h -1 v 1 h -1 v 1 h -1 v 2 h -1 v 1 h -1 v 1 h -1 v 2 h -1 v 1 h -1 v 1 h -1 v 1 h -1 v 1 h -1 v 2 h -1 v 1 h -1 v 1 h -1 v 1 h -1 v 1 h -1 v 1 h -1 v 1 h -1 v 1 h -1 v 1 h -1 v 2 h -1 v 1 h -1 v 1 h -1 v 1 h -1 v 1 h -1 v 1 h -1 v 1 h -2 v 1 h -1 v 1 h -1 v 1 h -1 v 1 h -1 v 1 h -1 v 1 h -1 v 1 h -1 v 1 h -1 v 1 h -2 v 1 h -1 v 1 h -1 v 1 h -1 v 1 h -1 v 1 h -2 v 1 h -1 v 1 h -1 v 1 h -2 v 1 h -1 v 1 h -1 v 1 h -2 v 1 h -1 v 1 h -1 v 1 h -2 v 1 h -2 v 1 h -1 v 1 h -2 v 1 h -1 v 1 h -2 v 1 h -1 v 1 h -2 v 1 h -2 v 1 h -2 v 1 h -1 v 1 h -2 v 1 h -2 v 1 h -2 v 1 h -2 v 1 h -2 v 1 h -2 v 1 h -2 v 1 h -2 v 1 h -3 v 1 h -2 v 1 h -3 v 1 h -2 v 1 h -3 v 1 h -2 v 1 h -3 v 1 h -3 v 1 h -3 v 1 h -4 v 1 h -3 v 1 h -4 v 1 h -4 v 1 h -4 v 1 h -5 v 1 h -6 v 1 h -5 v 1 h -9 v 1 h -9 v 1 H 97 v -1 H 85 v -1 h -7 v -1 h -6 v -1 h -6 v -1 h -6 v -1 h -6 v -1 h -6 v -1 h -5 v -1 h -4 v -1 h -3 v -1 h -4 v -1 h -3 v -1 h -4 v -1 h -3 v -1 h -3 v -1 h -4 v -1 h -3 v -1 H 8 v -1 H 7 v 1 H 6 v 1 H 5 v 1 H 4 v 1 H 3 v 1 H 2 v 1 H 1 v 1 H 0 v 3 h 1 v 1 h 1 v 1 h 2 v 1 h 1 v 1 h 1 v 1 h 1 v 1 h 2 v 1 h 1 v 1 h 1 v 1 h 1 v 1 h 2 v 1 h 1 v 1 h 1 v 1 h 1 v 1 h 2 v 1 h 1 v 1 h 1 v 1 h 2 v 1 h 1 v 1 h 2 v 1 h 1 v 1 h 1 v 1 h 2 v 1 h 1 v 1 h 2 v 1 h 1 v 1 h 2 v 1 h 1 v 1 h 2 v 1 h 1 v 1 h 2 v 1 h 2 v 1 h 1 v 1 h 2 v 1 h 1 v 1 h 2 v 1 h 2 v 1 h 1 v 1 h 2 v 1 h 2 v 1 h 2 v 1 h 2 v 1 h 1 v 1 h 2 v 1 h 2 v 1 h 2 v 1 h 2 v 1 h 2 v 1 h 2 v 1 h 2 v 1 h 2 v 1 h 2 v 1 h 3 v 1 h 2 v 1 h 3 v 1 h 3 v 1 h 2 v 1 h 3 v 1 h 3 v 1 h 2 v 1 h 3 v 1 h 3 v 1 h 2 v 1 h 3 v 1 h 4 v 1 h 4 v 1 h 4 v 1 h 3 v 1 h 4 v 1 h 4 v 1 h 4 v 1 h 4 v 1 h 5 v 1 h 7 v 1 h 6 v 1 h 6 v 1 h 7 v 1 h 13 v 1 h 50 v -1 h 12 v -1 h 7 v -1 h 6 v -1 h 7 v -1 h 7 v -1 h 4 v -1 h 4 v -1 h 4 v -1 h 4 v -1 h 4 v -1 h 4 v -1 h 4 v -1 h 4 v -1 h 3 v -1 h 3 v -1 h 2 v -1 h 3 v -1 h 3 v -1 h 3 v -1 h 2 v -1 h 3 v -1 h 3 v -1 h 3 v -1 h 2 v -1 h 3 v -1 h 2 v -1 h 2 v -1 h 2 v -1 h 2 v -1 h 2 v -1 h 2 v -1 h 2 v -1 h 2 v -1 h 2 v -1 h 2 v -1 h 3 v -1 h 2 v -1 h 2 v -1 h 2 v -1 h 1 v -1 h 2 v -1 h 1 v -1 h 2 v -1 h 2 v -1 h 1 v -1 h 2 v -1 h 2 v -1 h 1 v -1 h 2 v -1 h 2 v -1 h 1 v -1 h 2 v -1 h 2 v -1 h 1 v -1 h 2 v -1 h 1 v -1 h 1 v -1 h 2 v -1 h 1 v -1 h 1 v -1 h 2 v -1 h 1 v -1 h 1 v -1 h 2 v -1 h 1 v -1 h 1 v -1 h 2 v -1 h 1 v -1 h 1 v -1 h 2 v -1 h 1 v -1 h 1 v -1 h 2 v -1 h 1 v -1 h 1 v -1 h 1 v -1 h 1 v -1 h 2 v -1 h 1 v -1 h 1 v -1 h 1 v -1 h 1 v -1 h 1 v -1 h 1 v -1 h 1 v -1 h 1 v -1 h 1 v -1 h 1 v -1 h 2 v -1 h 1 v -1 h 1 v -1 h 1 v -1 h 1 v -1 h 1 v -1 h 1 v -1 h 1 v -1 h 1 v -1 h 1 v -1 h 1 v -1 h 1 v -1 h 1 v -1 h 1 v -2 h 1 v -1 h 1 v -1 h 1 v -1 h 1 v -1 h 1 v -1 h 1 v -1 h 1 v -1 h 1 v -1 h 1 v -1 h 1 v -2 h 1 v -1 h 1 v -1 h 1 v -1 h 1 v -1 h 1 v -1 h 1 v -2 h 1 v -1 h 1 v -1 h 1 v -2 h 1 v -1 h 1 v -1 h 1 v -2 h 1 v -1 h 1 v -1 h 1 v -2 h 1 v -1 h 1 v -1 h 1 v -2 h 1 v -1 h 1 v -1 h 1 v -2 h 1 v -1 h 1 v -2 h 1 v -1 h 1 v -2 h 1 v -1 h 1 v -2 h 1 v -2 h 1 v -1 h 1 v -2 h 1 v -2 h 1 v -1 h 1 v -2 h 1 v -2 h 1 v -1 h 1 v -2 h 1 v -2 h 1 v -1 h 1 v -2 h 1 v -2 h 1 v -2 h 1 v -2 h 1 v -2 h 1 v -2 h 1 v -2 h 1 v -2 h 1 v -2 h 1 v -3 h 1 v -2 h 1 v -2 h 1 v -2 h 1 v -2 h 1 v -2 h 1 v -3 h 1 v -2 h 1 v -3 h 1 v -3 h 1 v -3 h 1 v -2 h 1 v -3 h 1 v -3 h 1 v -3 h 1 v -2 h 1 v -3 h 1 v -4 h 1 v -4 h 1 v -4 h 1 v -4 h 1 v -4 h 1 v -3 h 1 v -4 h 1 v -4 h 1 v -7 h 1 v -6 h 1 v -7 h 1 v -6 h 1 v -7 h 1 v -19 h 1 v -36 h -1 v -11 h -1 v -10 h -1 v -8 h -1 v -5 h -1 v -6 h -1 v -6 h -1 v -4 h -1 v -4 h -1 v -4 h -1 v -4 h -1 v -4 h -1 v -4 h -1 v -3 h -1 v -4 h -1 v -3 h -1 v -3 h -1 v -3 h -1 v -3 h -1 v -3 h -1 v -2 h -1 v -3 h -1 v -2 h -1 v -3 h -1 v -2 h -1 v -3 h -1 v -2 h -1 v -3 h -1 v -2 h -1 v -2 h -1 v -2 h -1 v -2 h -1 v -2 h -1 v -2 h -1 v -2 h -1 v -2 h -1 v -2 h -1 v -2 h -1 v -2 h -1 v -2 h -1 v -2 h -1 v -2 h -1 v -1 h -1 v -2 h -1 v -2 h -1 v -2 h -1 v -1 h -1 v -2 h -1 v -2 h -1 v -1 h -1 v -2 h -1 v -1 h -1 v -2 h -1 v -1 h -1 v -2 h -1 v -1 h -1 v -2 h -1 v -1 h -1 v -2 h -1 v -1 h -1 v -2 h -1 v -1 h -1 v -1 h -1 v -2 h -1 v -1 h -1 v -1 h -1 v -2 h -1 v -1 h -1 v -1 h -1 v -2 h -1 v -1 h -1 v -1 h -1 v -2 h -1 v -1 h -1 v -1 h -1 v -1 h -1 v -1 h -1 v -1 h -1 v -2 h -1 v -1 h -1 v -1 h -1 v -1 h -1 v -1 h -1 v -1 h -1 v -1 h -1 v -2 h -1 v -1 h -1 v -1 h -1 v -1 h -1 v -1 h -1 v -1 h -1 v -1 h -1 v -1 h -1 v -1 h -1 v -1 h -1 v -1 h -1 v -1 h -1 v -1 h -1 v -1 h -1 v -1 h -1 v -1 h -1 v -1 h -1 v -1 h -1 v -1 h -1 v -1 h -1 v -1 h -1 v -1 h -1 v -1 h -2 v -1 h -1 v -1 h -1 v -1 h -1 v -1 h -1 v -1 h -1 v -1 h -1 v -1 h -2 v -1 h -1 v -1 h -1 v -1 h -1 v -1 h -1 v -1 h -2 v -1 h -1 v -1 h -1 v -1 h -1 v -1 h -2 v -1 h -1 v -1 h -1 v -1 h -2 v -1 h -1 v -1 h -1 v -1 h -2 v -1 h -1 v -1 h -1 v -1 h -2 v -1 h -1 v -1 h -2 v -1 h -1 v -1 h -2 v -1 h -1 v -1 h -2 v -1 h -1 v -1 h -2 v -1 h -1 v -1 h -2 v -1 h -1 v -1 h -2 v -1 h -2 v -1 h -2 v -1 h -1 v -1 h -2 v -1 h -2 v -1 h -2 v -1 h -1 v -1 h -2 v -1 h -2 v -1 h -2 v -1 h -1 v -1 h -2 v -1 h -2 v -1 h -2 v -1 h -2 v -1 h -2 v -1 h -2 v -1 h -1 v -1 h -2 v -1 h -2 v -1 h -2 v -1 h -2 v -1 h -2 v -1 h -2 v -1 h -1 v -1 h -2 v -1 h -1 v -1 h -2 v -1 h -1 v -1 h -2 v -1 h -1 v -1 h -2 v -1 h -2 v -1 h -1 v -1 h -2 v -1 h -1 v -1 h -2 v -1 h -1 v -1 h -2 v -1 h -1 v -1 h -1 v -1 h -1 v -1 h -2 v -1 h -1 v -1 h -1 v -1 h -2 v -1 h -1 v -1 h -1 v -1 h -1 v -1 h -2 v -1 h -1 v -1 h -1 v -1 h -1 v -1 h -1 v -1 h -1 v -1 h -1 v -1 h -1 v -1 h -1 v -1 h -1 v -1 h -1 v -1 h -1 v -1 h -1 v -1 h -1 v -1 h -1 v -1 h -1 v -1 h -1 v -2 h -1 v -1 h -1 v -1 h -1 v -1 h -1 v -2 h -1 v -1 h -1 v -1 h -1 v -2 h -1 v -1 h -1 v -1 h -1 v -2 h -1 v -2 h -1 v -1 h -1 v -2 h -1 v -2 h -1 v -1 h -1 v -2 h -1 v -2 h -1 v -2 h -1 v -2 h -1 v -2 h -1 v -2 h -1 v -2 h -1 v -2 h -1 v -3 h -1 v -2 h -1 v -2 h -1 v -3 h -1 v -2 h -1 v -3 h -1 v -3 h -1 v -2 h -1 v -3 h -1 v -2" /></g></g></g></g></g></g><g
         id="g66"><g
           clip-path="url(#clipPath72)"
           id="g68"><g
             clip-path="url(#clipPath78)"
             id="g74"><g
               clip-path="url(#clipPath84)"
               id="g80"><g
                 clip-path="url(#clipPath90)"
                 id="g86"><path
                   id="path98"
                   style="fill:url(#linearGradient96);fill-opacity:1;fill-rule:nonzero;stroke:none"
                   d="m 206,748 v 1 h -6 v 1 h -6 v 1 h -3 v 1 h -4 v 1 h -3 v 1 h -3 v 1 h -2 v 1 h -3 v 1 h -2 v 1 h -2 v 1 h -2 v 1 h -2 v 1 h -1 v 1 h -2 v 1 h -2 v 1 h -1 v 1 h -2 v 1 h -1 v 1 h -1 v 1 h -2 v 1 h -1 v 1 h -1 v 1 h -1 v 1 h -1 v 1 h -2 v 1 h -1 v 1 h -1 v 1 h -1 v 1 h -1 v 1 h -1 v 1 h -1 v 2 h -1 v 1 h -1 v 1 h -1 v 1 h -1 v 1 h -1 v 2 h -1 v 1 h -1 v 1 h -1 v 2 h -1 v 1 h -1 v 2 h -1 v 1 h -1 v 2 h -1 v 2 h -1 v 2 h -1 v 2 h -1 v 2 h -1 v 2 h -1 v 2 h -1 v 3 h -1 v 3 h -1 v 3 h -1 v 3 h -1 v 4 h -1 v 6 h -1 v 11 h -1 v 9 h 1 v 11 h 1 v 6 h 1 v 3 h 1 v 4 h 1 v 3 h 1 v 3 h 1 v 3 h 1 v 2 h 1 v 2 h 1 v 2 h 1 v 2 h 1 v 2 h 1 v 2 h 1 v 2 h 1 v 1 h 1 v 2 h 1 v 1 h 1 v 2 h 1 v 1 h 1 v 1 h 1 v 2 h 1 v 1 h 1 v 1 h 1 v 1 h 1 v 1 h 1 v 2 h 1 v 1 h 1 v 1 h 1 v 1 h 1 v 1 h 1 v 1 h 2 v 1 h 1 v 1 h 1 v 1 h 1 v 1 h 1 v 1 h 2 v 1 h 1 v 1 h 1 v 1 h 2 v 1 h 1 v 1 h 2 v 1 h 1 v 1 h 2 v 1 h 2 v 1 h 1 v 1 h 2 v 1 h 3 v 1 h 2 v 1 h 2 v 1 h 3 v 1 h 2 v 1 h 3 v 1 h 4 v 1 h 4 v 1 h 5 v 1 h 8 v 1 h 18 v -1 h 7 v -1 h 6 v -1 h 4 v -1 h 3 v -1 h 3 v -1 h 3 v -1 h 3 v -1 h 2 v -1 h 2 v -1 h 2 v -1 h 2 v -1 h 2 v -1 h 2 v -1 h 1 v -1 h 2 v -1 h 1 v -1 h 2 v -1 h 1 v -1 h 2 v -1 h 1 v -1 h 1 v -1 h 2 v -1 h 1 v -1 h 1 v -1 h 1 v -1 h 1 v -1 h 1 v -1 h 1 v -1 h 1 v -1 h 1 v -1 h 1 v -1 h 1 v -1 h 1 v -1 h 1 v -1 h 1 v -2 h 1 v -1 h 1 v -1 h 1 v -2 h 1 v -1 h 1 v -1 h 1 v -2 h 1 v -2 h 1 v -1 h 1 v -2 h 1 v -2 h 1 v -2 h 1 v -2 h 1 v -2 h 1 v -2 h 1 v -3 h 1 v -3 h 1 v -2 h 1 v -4 h 1 v -4 h 1 v -5 h 1 v -6 h 1 v -23 h -1 v -6 h -1 v -5 h -1 v -4 h -1 v -4 h -1 v -3 h -1 v -2 h -1 v -3 h -1 v -2 h -1 v -2 h -1 v -2 h -1 v -2 h -1 v -2 h -1 v -2 h -1 v -1 h -1 v -2 h -1 v -2 h -1 v -1 h -1 v -1 h -1 v -2 h -1 v -1 h -1 v -1 h -1 v -2 h -1 v -1 h -1 v -1 h -1 v -1 h -1 v -1 h -1 v -1 h -1 v -1 h -1 v -1 h -1 v -1 h -1 v -1 h -1 v -1 h -1 v -1 h -1 v -1 h -1 v -1 h -2 v -1 h -1 v -1 h -1 v -1 h -2 v -1 h -1 v -1 h -1 v -1 h -2 v -1 h -2 v -1 h -1 v -1 h -2 v -1 h -2 v -1 h -2 v -1 h -2 v -1 h -2 v -1 h -2 v -1 h -3 v -1 h -3 v -1 h -2 v -1 h -4 v -1 h -4 v -1 h -5 v -1 h -7 v -1" /></g></g></g></g></g><g
         id="g100"><g
           clip-path="url(#clipPath106)"
           id="g102"><path
             id="path108"
             style="fill:#1e375f;fill-opacity:1;fill-rule:nonzero;stroke:none"
             d="m 705.297,71.7383 c 0,-9.2266 6.961,-14.207 17.613,-17.0391 7.953,2.6992 14.067,8.3828 14.067,16.7617 0,7.3907 -4.403,15.0586 -15.629,15.0586 -10.371,0 -16.051,-6.8203 -16.051,-14.7812 z m 34.375,-46.168 c 0,11.2305 -7.813,16.6211 -20.313,20.1797 -10.796,-3.1289 -16.621,-10.2305 -16.621,-19.0391 -0.425,-9.3711 6.676,-17.62106 18.469,-17.62106 11.219,0 18.465,6.96876 18.465,16.48046 z M 689.949,25 c 0,11.6484 6.965,19.8984 18.332,24.7188 l -0.144,0.4296 c -10.227,4.8321 -14.629,12.7813 -14.629,20.7422 0,14.6289 12.355,24.5703 28.551,24.5703 17.898,0 26.847,-11.2226 26.847,-22.7226 0,-7.8164 -3.832,-16.1875 -15.199,-21.5899 V 50.7188 C 745.215,46.1719 752.32,38.082 752.32,26.8516 752.32,10.8008 738.539,0 720.922,0 701.602,0 689.949,11.5117 689.949,25 Z m -44.562,57.2617 h -0.285 l -16.055,-8.6719 -2.41,9.5196 20.168,10.789 h 10.656 V 1.57031 h -12.074 z m -88.75,-34.9531 c 0,-24.0078 7.383,-37.64844 18.75,-37.64844 12.781,0 18.89,14.91794 18.89,38.50004 0,22.7304 -5.82,37.6406 -18.75,37.6406 -10.937,0 -18.89,-13.3516 -18.89,-38.4922 z m 50.144,1.4219 C 606.781,17.3398 595.133,0 574.68,0 c -18.043,0 -30.262,16.9102 -30.547,47.4492 0,30.9727 13.351,48.0117 32.105,48.0117 19.461,0 30.543,-17.3203 30.543,-46.7304 z M 472.574,1.57031 v 7.66797 l 9.805,9.51172 c 23.578,22.4492 34.23,34.3906 34.375,48.3008 0,9.3789 -4.547,18.0508 -18.324,18.0508 -8.379,0 -15.344,-4.2735 -19.606,-7.8203 l -3.976,8.8085 c 6.39,5.3985 15.484,9.3711 26.136,9.3711 19.891,0 28.274,-13.6289 28.274,-26.8398 0,-17.0508 -12.363,-30.832 -31.82,-49.582 l -7.387,-6.8203 v -0.2774 h 41.476 V 1.57031 Z M 2056.78,948.309 V 743.93 h -46.18 v 162.98 h -78.32 L 1911.6,796.027 c -3.45,-18.234 -10.53,-31.468 -21.25,-39.726 -10.71,-8.242 -24.56,-12.371 -41.55,-12.371 h -24.37 v 42.14 h 22.15 c 11.08,0 17.73,5.282 19.95,15.879 l 27.34,146.36 z M 550.891,633.352 c 9.976,-0.481 18.578,-2.122 25.781,-4.922 7.191,-2.801 13.148,-6.461 17.84,-10.981 4.715,-4.508 8.16,-9.769 10.336,-15.699 2.222,-5.961 3.32,-12.211 3.32,-18.762 0,-7.117 -1.258,-13.707 -3.758,-19.726 -2.492,-6 -6.168,-11.211 -11.051,-15.621 -4.867,-4.403 -10.847,-7.95 -17.929,-10.621 -7.09,-2.668 -15.278,-4.321 -24.539,-4.911 V 520.141 H 525.18 v 11.968 c -9.86,0.473 -18.469,1.981 -25.782,4.551 -7.328,2.559 -13.367,6.02 -18.199,10.371 -4.808,4.34 -8.441,9.508 -10.879,15.52 -2.461,6.019 -3.66,12.687 -3.66,20.09 0,6.539 1.27,12.789 3.848,18.738 2.543,5.949 6.293,11.223 11.23,15.812 4.942,4.579 11.039,8.297 18.289,11.161 7.262,2.847 15.641,4.519 25.153,5 v 9.449 h 25.711 z M 1229.88,242.031 v -77.832 h -12.39 v 58.602 h -0.34 c -4.26,-6.91 -8.43,-13.742 -12.57,-20.481 -4.14,-6.75 -8.29,-13.582 -12.45,-20.48 -0.38,-0.602 -1.08,-1.75 -2.1,-3.41 -1.01,-1.668 -2.12,-3.481 -3.31,-5.399 -1.18,-1.941 -2.29,-3.761 -3.34,-5.472 -1.06,-1.7 -1.79,-2.821 -2.16,-3.36 h -12.73 v 77.832 h 12.73 c 0,-9.871 -0.03,-19.66 -0.06,-29.359 -0.04,-9.711 -0.04,-19.492 -0.04,-29.352 h 0.43 l 11.04,17.969 c 2.42,3.949 4.97,8.102 7.67,12.461 2.7,4.352 5.2,8.48 7.56,12.34 2.36,3.871 4.42,7.262 6.21,10.18 1.78,2.929 2.97,4.929 3.57,5.98 z m -146.8,-77.832 v 36.41 h -10.24 c -1.44,0 -2.9,-0.168 -4.37,-0.507 -1.49,-0.34 -2.9,-0.954 -4.28,-1.821 -1.35,-0.871 -2.59,-2.09 -3.68,-3.64 -1.1,-1.559 -1.99,-3.551 -2.68,-5.969 l -6.71,-24.473 h -12.51 l 7.05,27.192 c 0.46,1.597 1,3.168 1.66,4.718 0.65,1.563 1.49,3 2.55,4.332 1.07,1.329 2.33,2.45 3.8,3.36 1.49,0.91 3.25,1.551 5.29,1.929 -2.72,0.989 -5.04,2.75 -6.93,5.29 -1.89,2.539 -3.28,5.628 -4.21,9.281 l -5.35,21.73 h 12.07 c 0.9,-3.34 1.8,-6.66 2.66,-9.972 0.88,-3.297 1.74,-6.618 2.58,-9.95 0.66,-2.5 1.51,-4.519 2.54,-6.078 1.03,-1.562 2.15,-2.742 3.36,-3.531 1.22,-0.801 2.46,-1.32 3.73,-1.602 1.31,-0.25 2.59,-0.398 3.88,-0.398 h 9.79 v 31.641 h 12.74 V 210.5 h 10 c 1.22,0 2.47,0.148 3.81,0.398 1.33,0.282 2.59,0.801 3.81,1.602 1.21,0.789 2.31,1.969 3.29,3.531 0.99,1.559 1.83,3.578 2.51,6.078 l 5.24,19.922 h 11.93 l -5.24,-21.73 c -0.98,-3.653 -2.41,-6.742 -4.31,-9.281 -1.9,-2.54 -4.17,-4.301 -6.83,-5.29 2.05,-0.378 3.81,-1.019 5.29,-1.929 1.48,-0.91 2.75,-2.031 3.81,-3.36 1.06,-1.332 1.92,-2.769 2.56,-4.332 0.65,-1.55 1.19,-3.121 1.64,-4.718 l 7.05,-27.192 h -12.51 c -1.15,4.09 -2.26,8.18 -3.35,12.242 -1.09,4.059 -2.17,8.129 -3.24,12.231 -0.68,2.418 -1.59,4.41 -2.72,5.969 -1.14,1.55 -2.37,2.769 -3.7,3.64 -1.32,0.867 -2.73,1.481 -4.2,1.821 -1.48,0.339 -2.95,0.507 -4.37,0.507 h -10.47 v -36.41 z m -121.342,0 v 78.051 h 50.382 v -9.328 h -37.417 v -23.211 h 31.507 v -8.871 h -31.507 v -27.309 h 39.117 v -9.332 z m -94.488,0 V 144.75 h -10 v 28.449 l 7.16,0.11 c 2.582,2.652 4.692,5.761 6.313,9.332 1.625,3.558 2.937,7.621 3.918,12.168 0.988,4.562 1.742,9.601 2.23,15.132 0.477,5.528 0.973,11.637 1.41,18.309 l 0.907,14 h 46.753 v -68.941 l 7.829,-0.11 V 144.75 h -10 v 19.449 z m 22.398,60.883 v 0 c -0.527,-7.602 -1.019,-14.121 -1.468,-19.582 -0.461,-5.449 -1.082,-10.18 -1.871,-14.16 -0.813,-3.988 -1.86,-7.391 -3.141,-10.238 -1.289,-2.84 -2.957,-5.43 -5,-7.793 h 35.031 v 59.953 H 890.23 Z m -53.789,-21.973 c 0,-5.679 -0.726,-10.949 -2.136,-15.808 -1.453,-4.86 -3.602,-9.09 -6.434,-12.692 -2.84,-3.597 -6.398,-6.398 -10.641,-8.418 -4.238,-2 -9.168,-3.011 -14.789,-3.011 -6.211,0 -11.507,0.949 -15.906,2.84 -4.406,1.902 -8.004,4.57 -10.812,8.031 -2.813,3.449 -4.883,7.609 -6.192,12.461 -1.336,4.84 -1.992,10.269 -1.992,16.269 0,5.457 0.621,10.641 1.871,15.578 1.25,4.93 3.281,9.262 6.094,12.973 2.797,3.707 6.43,6.668 10.848,8.867 4.449,2.199 9.812,3.301 16.089,3.301 6.371,0 11.719,-1.102 16.051,-3.301 4.313,-2.199 7.82,-5.129 10.508,-8.808 2.699,-3.692 4.605,-7.969 5.742,-12.86 1.129,-4.902 1.699,-10.031 1.699,-15.422 z m -13.531,-0.328 v 0 c 0,3.707 -0.269,7.449 -0.801,11.199 -0.507,3.758 -1.515,7.129 -3.007,10.129 -1.469,2.981 -3.547,5.422 -6.2,7.282 -2.664,1.847 -6.14,2.789 -10.461,2.789 -4.308,0 -7.879,-0.899 -10.679,-2.668 -2.813,-1.793 -5,-4.141 -6.61,-7.071 -1.582,-2.921 -2.679,-6.269 -3.293,-10.062 -0.609,-3.789 -0.906,-7.699 -0.906,-11.731 0,-9.699 1.649,-17.117 4.949,-22.226 3.289,-5.121 8.813,-7.684 16.539,-7.684 3.579,0 6.641,0.774 9.219,2.344 2.594,1.547 4.715,3.656 6.383,6.348 1.66,2.699 2.883,5.871 3.68,9.511 0.797,3.637 1.187,7.579 1.187,11.84 z m -99.379,-38.582 -0.105,68.723 h -22.645 l -0.449,-7.633 c -0.371,-6.82 -0.73,-13.019 -1.07,-18.59 -0.352,-5.578 -0.848,-10.597 -1.477,-15.078 -0.656,-4.473 -1.515,-8.43 -2.562,-11.891 -1.071,-3.449 -2.571,-6.421 -4.5,-8.929 -1.922,-2.512 -4.34,-4.539 -7.211,-6.141 -2.891,-1.59 -6.461,-2.808 -10.688,-3.64 l -2.738,9.101 c 4.246,1.52 7.527,3.359 9.848,5.52 2.308,2.16 4.015,5.16 5.168,8.98 1.14,3.84 1.902,8.699 2.32,14.629 0.43,5.91 0.89,13.422 1.441,22.531 l 1.129,20.469 h 46.508 v -78.051 z m -77.207,38.91 c 0,-5.679 -0.73,-10.949 -2.172,-15.808 -1.422,-4.86 -3.57,-9.09 -6.422,-12.692 -2.816,-3.597 -6.378,-6.398 -10.628,-8.418 -4.239,-2 -9.161,-3.011 -14.782,-3.011 -6.215,0 -11.527,0.949 -15.918,2.84 -4.398,1.902 -8,4.57 -10.793,8.031 -2.816,3.449 -4.886,7.609 -6.211,12.461 -1.328,4.84 -1.996,10.269 -1.996,16.269 0,5.457 0.641,10.641 1.871,15.578 1.27,4.93 3.289,9.262 6.098,12.973 2.813,3.707 6.441,6.668 10.859,8.867 4.442,2.199 9.79,3.301 16.09,3.301 6.364,0 11.715,-1.102 16.032,-3.301 4.32,-2.199 7.832,-5.129 10.523,-8.808 2.687,-3.692 4.598,-7.969 5.746,-12.86 1.133,-4.902 1.703,-10.031 1.703,-15.422 z m -13.539,-0.328 v 0 c 0,3.707 -0.254,7.449 -0.793,11.199 -0.519,3.758 -1.543,7.129 -3.012,10.129 -1.468,2.981 -3.55,5.422 -6.195,7.282 -2.652,1.847 -6.133,2.789 -10.465,2.789 -4.308,0 -7.875,-0.899 -10.679,-2.668 -2.817,-1.793 -5.008,-4.141 -6.602,-7.071 -1.598,-2.921 -2.711,-6.269 -3.305,-10.062 -0.609,-3.789 -0.902,-7.699 -0.902,-11.731 0,-9.699 1.641,-17.117 4.949,-22.226 3.281,-5.121 8.809,-7.684 16.539,-7.684 3.559,0 6.641,0.774 9.203,2.344 2.59,1.547 4.719,3.656 6.368,6.348 1.679,2.699 2.902,5.871 3.711,9.511 0.793,3.637 1.183,7.579 1.183,11.84 z m -125.933,-17.422 13.179,30.723 c 1.953,4.328 3.852,8.668 5.653,13.027 1.828,4.36 3.726,8.7 5.699,13.032 h 14.762 v -77.942 h -12.395 v 57.68 h -0.348 l -6.027,-14.207 -15.57,-35.613 h -11.157 c -2.578,6.132 -5.164,12.281 -7.785,18.429 -2.613,6.141 -5.324,12.293 -8.133,18.434 -0.828,2.187 -1.718,4.328 -2.679,6.359 -0.938,2.051 -1.821,4.129 -2.66,6.27 h -0.231 c 0,-9.641 -0.008,-19.211 -0.047,-28.731 -0.058,-9.519 -0.058,-19.058 -0.058,-28.621 h -12.285 v 77.942 h 15.332 l 10.902,-25.942 13.047,-30.84 z M 1572.59,417.16 v -77.82 h -12.4 v 58.601 h -0.33 c -4.24,-6.91 -8.44,-13.73 -12.57,-20.48 -4.13,-6.762 -8.29,-13.582 -12.46,-20.492 -0.37,-0.598 -1.08,-1.739 -2.09,-3.41 -1.03,-1.668 -2.12,-3.469 -3.3,-5.399 -1.18,-1.941 -2.3,-3.75 -3.36,-5.461 -1.06,-1.719 -1.79,-2.82 -2.17,-3.359 h -12.73 v 77.82 h 12.73 c 0,-9.859 -0.01,-19.64 -0.05,-29.351 -0.05,-9.707 -0.05,-19.489 -0.05,-29.36 h 0.45 l 11.03,17.981 c 2.43,3.941 4.98,8.101 7.67,12.449 2.7,4.359 5.21,8.492 7.57,12.351 2.34,3.872 4.41,7.258 6.2,10.18 1.78,2.93 2.98,4.91 3.58,5.969 z m -31.6,7.059 v 0 c -2.14,0 -4.13,0.39 -5.99,1.191 -1.85,0.801 -3.6,1.828 -5.24,3.129 -1.62,1.281 -3.13,2.75 -4.53,4.383 -1.42,1.629 -2.71,3.316 -3.93,5.058 l 6.03,4.442 c 2.2,-3.031 4.55,-5.391 7.05,-7.051 2.49,-1.68 4.82,-2.5 6.93,-2.5 0.68,0 1.55,0.051 2.57,0.16 1.03,0.11 2.21,0.457 3.57,1.008 1.37,0.59 2.93,1.449 4.67,2.633 1.75,1.18 3.71,2.828 5.91,4.949 l 3.88,-3.519 c -3.43,-5.161 -6.97,-8.77 -10.66,-10.813 -3.66,-2.051 -7.09,-3.07 -10.26,-3.07 z M 1428.97,339.34 v 78.039 h 50.37 v -9.32 h -37.4 v -23.207 h 31.49 v -8.872 h -31.49 v -27.308 h 39.11 v -9.332 z m -37.76,0 h -89.26 v 78.039 h 12.61 v -68.93 h 26.16 v 68.93 h 12.62 v -68.93 h 25.83 v 68.93 h 12.95 v -68.93 h 8.87 v -28.558 h -9.78 z m -120.3,38.801 c 0,-5.692 -0.66,-10.961 -1.99,-15.821 -1.33,-4.851 -3.33,-9.039 -6.03,-12.57 -2.69,-3.531 -6.11,-6.289 -10.24,-8.301 -4.13,-2.008 -9.02,-3.008 -14.72,-3.008 -5.77,0 -10.73,0.868 -14.88,2.61 -4.18,1.738 -7.64,4.23 -10.36,7.449 -2.73,3.219 -4.78,7.148 -6.14,11.781 -1.37,4.617 -2.09,9.789 -2.17,15.457 h -15.01 V 339.34 h -12.73 v 78.039 h 12.73 v -32.981 h 15.14 c 0.44,4.774 1.36,9.231 2.78,13.364 1.39,4.136 3.43,7.758 6.07,10.879 2.66,3.089 5.99,5.55 10.01,7.328 4.03,1.781 8.88,2.66 14.56,2.66 6.37,0 11.67,-1.09 15.94,-3.277 4.22,-2.211 7.61,-5.172 10.16,-8.891 2.54,-3.711 4.31,-8.012 5.35,-12.91 1.01,-4.879 1.53,-10.031 1.53,-15.41 z m -13.42,-0.231 v 0 c 0,3.719 -0.23,7.43 -0.68,11.149 -0.46,3.722 -1.36,7.05 -2.73,10.011 -1.37,2.969 -3.34,5.371 -5.92,7.219 -2.57,1.859 -5.98,2.789 -10.23,2.789 -4.25,0 -7.69,-0.887 -10.35,-2.668 -2.65,-1.781 -4.74,-4.109 -6.26,-6.988 -1.51,-2.902 -2.53,-6.231 -3.06,-10.024 -0.54,-3.789 -0.79,-7.66 -0.79,-11.597 0,-4.86 0.35,-9.16 1.07,-12.91 0.72,-3.762 1.88,-6.903 3.47,-9.45 1.59,-2.543 3.69,-4.453 6.3,-5.75 2.63,-1.293 5.82,-1.929 9.62,-1.929 3.55,0 6.57,0.769 9.03,2.328 2.47,1.558 4.48,3.691 6.05,6.379 1.54,2.679 2.68,5.883 3.4,9.551 0.72,3.671 1.08,7.64 1.08,11.89 z m -119.96,-38.57 c -1.07,3.18 -2.07,6.371 -3.02,9.558 -0.95,3.18 -1.95,6.403 -3.01,9.661 h -29.69 l -6.02,-19.219 h -12.97 c 4.63,13.949 9.15,27.422 13.54,40.39 4.4,12.969 8.6,25.52 12.62,37.649 h 16.27 l 25.57,-78.039 z m -14.22,46.941 v 0 c -1.06,3.617 -2.11,7.199 -3.14,10.707 -1.01,3.524 -2.06,7.024 -3.11,10.492 h -0.47 l -6,-20.75 c -0.09,-0.218 -0.3,-0.808 -0.58,-1.75 -0.31,-0.96 -0.65,-2.089 -1.03,-3.402 -0.38,-1.34 -0.79,-2.726 -1.25,-4.199 -0.46,-1.488 -0.9,-2.891 -1.31,-4.199 -0.42,-1.328 -0.79,-2.489 -1.08,-3.461 -0.3,-0.989 -0.49,-1.598 -0.57,-1.821 h 23.99 z m -105.58,-25.781 13.17,30.719 c 1.97,4.32 3.86,8.66 5.67,13.031 1.81,4.359 3.71,8.699 5.69,13.031 h 14.75 V 339.34 h -12.4 v 57.691 h -0.34 l -6.02,-14.23 -15.59,-35.61 h -11.14 c -2.58,6.149 -5.17,12.289 -7.78,18.43 -2.63,6.149 -5.334,12.289 -8.131,18.43 -0.828,2.199 -1.726,4.34 -2.671,6.379 -0.934,2.039 -1.848,4.129 -2.668,6.25 h -0.231 c 0,-9.629 -0.019,-19.211 -0.059,-28.719 -0.05,-9.531 -0.07,-19.063 -0.07,-28.621 h -12.269 v 77.941 h 15.336 l 10.893,-25.941 13.06,-30.84 z m -97.511,6.602 6.824,19.339 11.25,30.938 h 12.738 l -26.043,-67.34 c -1.746,-4.398 -3.828,-7.519 -6.25,-9.328 -2.422,-1.82 -5.57,-2.742 -9.425,-2.742 -1.383,0 -3.196,0.082 -5.473,0.23 -2.277,0.153 -5.231,0.77 -8.867,1.832 l 2.269,9.321 c 2.051,-0.454 3.778,-0.801 5.188,-1.024 1.386,-0.226 2.703,-0.34 3.91,-0.34 1.742,0 3.23,0.34 4.453,1.024 1.199,0.679 2.203,2.238 3.047,4.668 l 1.953,5.23 h -3.762 l -24.109,58.469 h 12.726 l 11.942,-30.938 7.066,-19.339 z M 800.152,339.34 v -19.449 h -10.011 v 28.437 l 7.168,0.121 c 2.57,2.653 4.664,5.762 6.281,9.321 1.648,3.57 2.957,7.628 3.949,12.179 0.973,4.539 1.707,9.59 2.203,15.121 0.496,5.539 0.981,11.641 1.43,18.328 l 0.906,13.981 h 46.738 v -68.93 l 7.856,-0.121 V 319.891 H 856.66 v 19.449 z m 22.375,60.871 v 0 c -0.523,-7.582 -1.007,-14.109 -1.457,-19.563 -0.461,-5.468 -1.082,-10.187 -1.89,-14.168 -0.789,-3.992 -1.832,-7.402 -3.121,-10.242 -1.289,-2.847 -2.957,-5.437 -5,-7.789 h 35.019 v 59.949 H 823.109 Z M 675.742,375.629 c -4.262,1.519 -7.488,4.051 -9.683,7.57 -2.188,3.531 -3.289,7.461 -3.289,11.781 0,3.18 0.484,6.141 1.457,8.872 1.003,2.726 2.5,5.097 4.453,7.117 1.961,2 4.468,3.582 7.5,4.711 3.039,1.14 6.609,1.699 10.699,1.699 h 29.332 V 339.34 h -12.844 v 32.769 H 692.68 c -3.711,0 -6.782,-0.828 -9.207,-2.449 -2.434,-1.629 -4.371,-4.762 -5.813,-9.379 l -6.019,-20.941 h -12.852 l 6.363,22.18 c 1.137,4.019 2.481,7.062 4.036,9.109 1.566,2.043 3.734,3.562 6.554,4.551 z m 27.625,5.812 v 26.618 h -13.875 c -3.941,0 -7.191,-1.09 -9.769,-3.258 -2.582,-2.16 -3.875,-5.61 -3.875,-10.34 0,-2.66 0.429,-4.859 1.32,-6.57 0.855,-1.711 1.953,-3.039 3.281,-4 1.332,-0.95 2.793,-1.602 4.379,-1.942 1.594,-0.34 3.121,-0.508 4.551,-0.508 z m -86.183,-42.101 -0.125,68.719 H 594.43 l -0.469,-7.618 c -0.363,-6.832 -0.731,-13.031 -1.07,-18.601 -0.332,-5.57 -0.84,-10.602 -1.469,-15.078 -0.66,-4.481 -1.5,-8.442 -2.582,-11.883 -1.063,-3.469 -2.539,-6.43 -4.469,-8.949 -1.941,-2.489 -4.351,-4.539 -7.23,-6.129 -2.868,-1.602 -6.442,-2.821 -10.68,-3.641 l -2.731,9.102 c 4.239,1.508 7.52,3.359 9.821,5.519 2.316,2.16 4.039,5.149 5.187,8.981 1.129,3.828 1.91,8.707 2.332,14.617 0.41,5.922 0.887,13.43 1.418,22.531 l 1.129,20.469 h 46.516 V 339.34 Z m -140.684,0 v -19.449 h -9.996 v 28.437 l 7.168,0.121 c 2.578,2.653 4.668,5.762 6.301,9.321 1.629,3.57 2.949,7.628 3.929,12.179 0.989,4.539 1.719,9.59 2.215,15.121 0.492,5.539 0.961,11.641 1.422,18.328 l 0.902,13.981 h 46.739 v -68.93 l 7.863,-0.121 v -28.437 h -10.02 v 19.449 z m 22.422,60.871 v 0 c -0.543,-7.582 -1.031,-14.109 -1.492,-19.563 -0.461,-5.468 -1.078,-10.187 -1.879,-14.168 -0.789,-3.992 -1.828,-7.402 -3.121,-10.242 -1.289,-2.847 -2.95,-5.437 -5.008,-7.789 h 35.039 v 59.949 H 499.48 Z m 1216.878,202.777 -8.91,-22.679 c -1.56,-3.45 -3.26,-7.309 -5.08,-11.598 -1.86,-4.289 -3.7,-8.602 -5.53,-12.949 -1.86,-4.332 -3.67,-8.653 -5.45,-12.942 -1.8,-4.281 -3.47,-8.16 -5.01,-11.59 h -21.6 c -1.53,3.571 -3.2,7.54 -4.99,11.95 -1.77,4.402 -3.58,8.851 -5.43,13.3 -1.85,4.461 -3.69,8.872 -5.54,13.219 -1.83,4.34 -3.59,8.301 -5.26,11.86 l -7.84,20.543 h -0.55 v -19.114 c 0,-7.129 -0.02,-14.418 -0.08,-21.867 -0.07,-7.441 -0.1,-14.723 -0.1,-21.871 v -19.109 h -25.34 v 122.66 h 32.44 l 16.05,-39.813 c 1.18,-3.097 2.52,-6.508 4,-10.258 1.5,-3.75 2.99,-7.628 4.54,-11.609 1.56,-3.992 3.02,-7.883 4.47,-11.699 1.41,-3.813 2.77,-7.203 4.08,-10.172 h 1.42 c 2.86,6.898 5.79,14.102 8.73,21.602 2.97,7.5 5.9,14.757 8.74,21.777 1.18,2.512 2.52,5.543 4.02,9.109 1.48,3.571 2.97,7.231 4.46,10.981 1.47,3.75 2.97,7.41 4.44,10.992 1.48,3.559 2.84,6.598 4.02,9.09 h 31.36 v -122.66 h -25.52 v 82.847 z m -332.28,-34.629 10.56,29.629 16.4,44.992 h 25.87 l -41.94,-105.699 c -2.85,-7.25 -6.44,-12.371 -10.79,-15.34 -4.34,-2.98 -9.77,-4.472 -16.34,-4.472 -2.74,0 -6.08,0.172 -10.07,0.531 -3.98,0.359 -8.89,1.371 -14.73,3.039 l 4.12,17.852 c 3.45,-0.711 6.28,-1.219 8.48,-1.52 2.19,-0.301 4.18,-0.441 5.97,-0.441 2.37,0 4.4,0.468 6.05,1.429 1.68,0.95 3.11,2.973 4.31,6.063 l 2.84,7.508 h -6.6 l -39.26,91.05 h 26.23 l 17.32,-44.992 10.71,-29.629 z m -219.82,36.95 c 0,-4.399 -0.72,-8.86 -2.15,-13.387 -1.43,-4.531 -3.76,-8.602 -6.96,-12.231 -3.21,-3.632 -7.36,-6.601 -12.41,-8.929 -5.06,-2.321 -11.21,-3.473 -18.47,-3.473 h -22.3 l 0.18,-47.148 H 1075 V 642.98 h 46.57 c 14.02,0 24.56,-3.39 31.56,-10.171 7.03,-6.778 10.57,-15.95 10.57,-27.5 z m -62.29,18.929 V 585.32 h 17.3 c 2.39,0 4.67,0.321 6.88,0.969 2.19,0.66 4.13,1.75 5.79,3.289 1.66,1.543 3.02,3.551 4.03,6.043 1,2.488 1.51,5.508 1.51,9.07 0,6.989 -1.83,11.989 -5.45,15.008 -3.64,3.02 -8.17,4.539 -13.65,4.539 z M 895.828,581.559 c 0,-9.039 -1.187,-17.399 -3.558,-25.079 -2.379,-7.671 -5.954,-14.339 -10.7,-20 -4.769,-5.64 -10.703,-10.089 -17.761,-13.289 -7.09,-3.211 -15.329,-4.832 -24.727,-4.832 -9.988,0 -18.613,1.52 -25.875,4.551 -7.266,3.039 -13.246,7.32 -17.937,12.871 -4.688,5.52 -8.172,12.129 -10.43,19.809 -2.262,7.672 -3.399,16.211 -3.399,25.621 0,8.801 1.098,17.07 3.321,24.82 2.168,7.731 5.597,14.52 10.25,20.348 4.636,5.84 10.59,10.422 17.847,13.75 7.254,3.332 16.004,5 26.223,5 10.238,0 18.949,-1.707 26.137,-5.098 7.203,-3.39 13.062,-7.953 17.57,-13.75 4.52,-5.761 7.84,-12.48 9.922,-20.172 2.09,-7.668 3.117,-15.859 3.117,-24.55 z m -28.015,-0.348 v 0 c 0,5.59 -0.372,11.09 -1.153,16.508 -0.781,5.41 -2.222,10.242 -4.293,14.461 -2.078,4.23 -4.988,7.648 -8.75,10.281 -3.726,2.598 -8.59,3.918 -14.535,3.918 -6.059,0 -11.019,-1.277 -14.902,-3.84 -3.86,-2.559 -6.93,-5.93 -9.18,-10.078 -2.262,-4.18 -3.82,-8.992 -4.641,-14.473 -0.828,-5.468 -1.257,-11.117 -1.257,-16.957 0,-13.929 2.238,-24.66 6.699,-32.222 4.469,-7.571 12.222,-11.348 23.281,-11.348 5.117,0 9.508,1.098 13.207,3.32 3.691,2.188 6.66,5.25 8.922,9.188 2.262,3.922 3.93,8.531 4.988,13.82 1.102,5.313 1.614,11.109 1.614,17.422 z M 525.18,614.949 v 0 c -5.828,-0.469 -10.782,-1.66 -14.883,-3.57 -4.098,-1.899 -7.445,-4.309 -10.008,-7.238 -2.559,-2.911 -4.422,-6.231 -5.621,-9.993 -1.195,-3.75 -1.777,-7.699 -1.777,-11.867 0,-9.64 2.672,-17.14 8.05,-22.492 5.336,-5.367 13.411,-8.519 24.239,-9.457 z m 25.89,-64.617 v 0 c 9.864,0.938 17.489,4.328 22.832,10.156 5.356,5.844 8.036,13.16 8.036,21.981 0,3.91 -0.508,7.75 -1.508,11.511 -1.02,3.739 -2.719,7.098 -5.11,10.079 -2.359,2.98 -5.519,5.453 -9.441,7.41 -3.93,1.972 -8.867,3.133 -14.809,3.48 z m 340.641,327.012 c -7.895,11.097 -17.18,19.566 -27.902,25.484 -10.707,5.93 -24.192,8.895 -40.45,8.895 -10.336,0 -19.636,-1.555 -27.89,-4.614 -8.246,-3.046 -15.328,-7.457 -21.231,-13.218 -5.918,-5.762 -10.476,-12.672 -13.668,-20.762 -3.203,-8.098 -4.8,-17.168 -4.8,-27.199 0,-9.809 1.671,-18.739 4.984,-26.84 3.328,-8.07 7.945,-15 13.855,-20.762 5.899,-5.738 12.993,-10.219 21.239,-13.418 8.254,-3.199 17.414,-4.762 27.511,-4.762 16.258,0 29.743,2.961 40.45,8.875 10.722,5.887 20.007,14.399 27.902,25.489 l 35.816,-20.692 c -10.578,-18.07 -24.504,-31.761 -41.726,-41.07 -17.242,-9.328 -37.813,-14.012 -61.707,-14.012 -16.235,0 -31.383,2.473 -45.422,7.391 -14.043,4.941 -26.152,12.012 -36.332,21.262 -10.156,9.226 -18.168,20.515 -24,33.82 -5.828,13.301 -8.742,28.211 -8.742,44.719 0,16.5 2.98,31.414 8.933,44.718 5.949,13.309 14.082,24.571 24.379,33.813 10.289,9.238 22.403,16.328 36.317,21.25 13.894,4.926 28.855,7.398 44.867,7.398 23.894,0 44.465,-4.679 61.707,-13.992 17.222,-9.328 31.148,-23.015 41.726,-41.086 z m 137.049,70.965 71.65,-148.219 h 1.85 l 74.61,148.219 h 59.12 V 743.93 h -45.45 v 143.019 h -2.21 L 1119.25,743.93 h -38.79 l -66.49,143.019 h -2.21 V 743.93 h -44.701 v 204.379 z m 297.71,0 v -46.2 h 70.56 c 12.06,0 23.22,-1.781 33.44,-5.386 10.2,-3.563 19.07,-8.692 26.59,-15.364 7.5,-6.66 13.41,-14.816 17.72,-24.437 4.31,-9.652 6.48,-20.531 6.48,-32.613 0,-12.098 -2.17,-23.098 -6.48,-32.969 -4.31,-9.883 -10.22,-18.32 -17.72,-25.379 -7.52,-7.031 -16.39,-12.473 -26.59,-16.301 -10.22,-3.832 -21.38,-5.73 -33.44,-5.73 H 1280.3 v 204.379 z m 0,-162.239 h 67.24 c 27.57,0 41.37,12.66 41.37,38.039 0,12.571 -3.45,21.821 -10.33,27.719 -6.91,5.934 -17.26,8.883 -31.04,8.883 h -67.24 z m 219.43,-42.14 h -46.17 v 204.379 h 46.17 z m 222.74,133.414 c -7.89,11.097 -17.16,19.566 -27.89,25.484 -10.71,5.93 -24.2,8.895 -40.44,8.895 -10.35,0 -19.64,-1.555 -27.88,-4.614 -8.28,-3.046 -15.35,-7.457 -21.25,-13.218 -5.92,-5.762 -10.48,-12.672 -13.67,-20.762 -3.21,-8.098 -4.82,-17.168 -4.82,-27.199 0,-9.809 1.66,-18.739 5.01,-26.84 3.31,-8.07 7.93,-15 13.84,-20.762 5.91,-5.738 12.99,-10.219 21.25,-13.418 8.25,-3.199 17.41,-4.762 27.52,-4.762 16.24,0 29.73,2.961 40.44,8.875 10.73,5.887 20,14.399 27.89,25.489 l 35.83,-20.692 c -10.59,-18.07 -24.51,-31.761 -41.75,-41.07 -17.23,-9.328 -37.78,-14.012 -61.67,-14.012 -16.26,0 -31.41,2.473 -45.46,7.391 -14.02,4.941 -26.14,12.012 -36.3,21.262 -10.18,9.226 -18.17,20.515 -24.01,33.82 -5.84,13.301 -8.75,28.211 -8.75,44.719 0,16.5 2.98,31.414 8.93,44.718 5.97,13.309 14.09,24.571 24.38,33.813 10.3,9.238 22.41,16.328 36.32,21.25 13.92,4.926 28.88,7.398 44.89,7.398 23.89,0 44.44,-4.679 61.67,-13.992 17.24,-9.328 31.16,-23.015 41.75,-41.086 l -35.83,-20.687" /></g></g></g></g></svg>